<?xml version="1.0" standalone="no"?>
<!DOCTYPE svg PUBLIC "-//W3C//DTD SVG 20010904//EN"
 "http://www.w3.org/TR/2001/REC-SVG-20010904/DTD/svg10.dtd">
<svg version="1.0" xmlns="http://www.w3.org/2000/svg"
 width="625.000000pt" height="156.000000pt" viewBox="0 0 625.000000 156.000000"
 preserveAspectRatio="xMidYMid meet">

<g transform="translate(0.000000,156.000000) scale(0.100000,-0.100000)"
fill="#000000" stroke="none">
<path d="M1736 778 c-9 -12 -16 -28 -16 -34 0 -6 -13 -14 -29 -17 -37 -8 -45
-30 -20 -61 l20 -26 -21 -30 c-30 -42 -14 -60 51 -60 37 0 49 4 49 15 0 11
-11 15 -41 15 l-41 0 16 25 c20 30 20 49 1 65 -22 18 -18 27 15 34 21 4 30 11
30 25 0 29 18 36 40 16 18 -16 21 -16 44 -1 34 22 36 21 36 -18 0 -38 17 -57
31 -35 21 33 3 109 -25 109 -7 0 -25 -9 -40 -21 -24 -19 -29 -20 -44 -7 -32
28 -41 28 -56 6z"/>
<path d="M2184 786 c-9 -24 1 -99 14 -104 8 -2 12 10 12 43 l0 46 31 -22 31
-22 29 22 29 22 0 -24 c0 -29 18 -47 47 -47 l24 0 -22 -29 -22 -29 22 -31 22
-31 -45 0 c-34 0 -46 -4 -46 -15 0 -23 108 -21 117 1 3 9 1 24 -5 33 -23 32
-25 44 -8 71 15 26 15 30 0 44 -8 9 -24 16 -34 16 -13 0 -20 8 -22 26 -4 38
-32 53 -56 31 -23 -21 -46 -22 -62 -2 -16 19 -49 20 -56 1z"/>
<path d="M1807 653 c-4 -3 -7 -29 -7 -58 0 -49 2 -53 67 -118 61 -63 65 -69
50 -84 -13 -13 -19 -14 -31 -3 -9 7 -16 23 -16 36 0 22 -33 54 -57 54 -20 0
-43 -30 -43 -58 0 -17 14 -41 42 -69 l41 -42 -39 -46 c-21 -26 -45 -56 -53
-66 -7 -10 -21 -19 -31 -19 -9 0 -29 -9 -44 -21 -54 -42 -19 -129 51 -129 34
0 73 38 73 70 0 10 29 41 66 71 l65 52 43 -42 c49 -48 92 -54 111 -15 14 28
35 54 45 54 18 0 134 -103 137 -121 12 -77 104 -96 139 -28 25 50 -8 108 -63
109 -10 1 -42 30 -71 67 l-53 66 45 46 c52 53 58 83 21 107 -23 15 -27 15 -50
0 -15 -10 -25 -26 -25 -40 0 -13 -7 -29 -16 -36 -13 -11 -18 -10 -35 7 l-21
20 65 57 c60 53 65 61 70 108 8 68 -2 81 -62 72 -41 -5 -56 -16 -133 -92 l-88
-86 -53 52 c-29 28 -56 52 -60 52 -19 0 -2 -29 44 -76 41 -41 47 -53 36 -62
-22 -18 -133 101 -140 152 l-6 39 41 -6 c31 -4 52 -16 87 -51 43 -42 71 -57
71 -38 0 4 -22 29 -49 56 -53 52 -140 84 -164 59z m453 -60 c0 -34 -11 -47
-134 -172 -119 -120 -136 -133 -151 -121 -15 12 -3 27 110 140 69 69 122 129
118 133 -4 4 -64 -49 -133 -118 -113 -112 -128 -124 -140 -110 -12 14 2 31
111 141 128 130 145 142 192 143 25 1 27 -2 27 -36z m-422 -174 c5 -34 180
-209 209 -209 12 0 24 -4 27 -9 8 -13 -4 -41 -17 -41 -16 0 -267 251 -267 267
0 12 19 23 35 19 6 -1 11 -13 13 -27z m452 2 c0 -24 -196 -216 -205 -201 -5 8
24 44 79 99 48 48 84 90 80 94 -11 11 16 36 32 30 8 -3 14 -13 14 -22z m-136
-50 c14 -15 14 -20 3 -30 -11 -8 -18 -7 -31 8 -10 11 -15 25 -11 30 9 16 20
14 39 -8z m-42 -73 c-18 -18 -57 19 -40 39 10 12 15 11 32 -6 16 -16 18 -23 8
-33z m-49 -16 c13 -14 14 -21 5 -30 -16 -16 -33 -15 -48 3 -10 12 -10 18 0 30
16 19 23 19 43 -3z m-163 -18 c21 -21 22 -27 10 -34 -18 -11 -61 26 -53 46 7
20 16 18 43 -12z m330 2 c0 -7 -9 -21 -20 -31 -16 -14 -23 -16 -32 -7 -9 9 -6
18 12 37 23 24 40 25 40 1z m-374 -47 c16 -17 16 -22 4 -29 -20 -13 -26 -12
-39 4 -11 13 -5 46 9 46 4 0 15 -9 26 -21z m414 -3 c0 -22 -29 -41 -42 -28 -9
9 -7 17 7 32 18 20 35 18 35 -4z m-461 -40 c8 -10 9 -16 1 -21 -13 -8 -30 3
-30 21 0 18 14 18 29 0z m487 -14 c-8 -9 -19 -13 -22 -9 -10 9 16 38 28 31 6
-4 4 -13 -6 -22z m-522 -22 c15 -15 9 -63 -10 -77 -25 -18 -41 -16 -64 7 -25
25 -25 45 1 71 20 20 51 19 73 -1z m604 4 c30 -21 29 -59 -3 -80 -23 -15 -27
-15 -50 0 -32 21 -33 59 -3 80 12 9 25 16 28 16 3 0 16 -7 28 -16z"/>
</g>
</svg>
